<svg width="1752" height="1728" viewBox="-11.6 -305 1752 1728" fill="none" xmlns="http://www.w3.org/2000/svg">
  <defs>
    <radialGradient id="g" cx="0" cy="0" r="1" gradientUnits="userSpaceOnUse"
      gradientTransform="translate(864.4 488) rotate(90) scale(634.5 643.313)">
      <stop stop-color="white" stop-opacity="0.24"/>
      <stop offset="0.435776" stop-color="white" stop-opacity="0.24"/>
    </radialGradient>
  </defs>
  <path opacity="0.25" d="M0.000419617 6.60007H1728M0.000419617 30.6001H1728M0.000419617 54.6001H1728M0.000419617 78.6001H1728M0.000419617 102.6H1728M0.000419617 126.6H1728M0.000419617 150.6H1728M0.000419617 174.6H1728M0.000419617 198.6H1728M0.000419617 222.6H1728M0.000419617 246.6H1728M0.000419617 270.6H1728M0.000419617 294.6H1728M0.000419617 318.6H1728M0.000419617 342.6H1728M0.000419617 366.6H1728M0.000419617 390.6H1728M0.000419617 414.6H1728M0.000419617 438.6H1728M0.000419617 462.6H1728M0.000419617 486.6H1728M0.000419617 510.6H1728M0.000419617 534.6H1728M0.000419617 558.6H1728M0.000419617 582.6H1728M0.000419617 606.6H1728M0.000419617 630.6H1728M0.000419617 654.6H1728M0.000419617 678.6H1728M0.000419617 702.6H1728M0.000419617 726.6H1728M0.000419617 750.6H1728M0.000419617 774.6H1728M0.000419617 798.6H1728M0.000419617 822.6H1728M0.000419617 846.6H1728M0.000419617 870.6H1728M0.000419617 894.6H1728M0.000419617 918.6H1728M0.000419617 942.6H1728M0.000419617 966.6H1728M0.000419617 990.6H1728M0.000419617 1014.6H1728M0.000419617 1038.6H1728M0.000419617 1062.6H1728M0.000419617 1086.6H1728M0.000419617 1110.6H1728M1740.4 -305L1740.4 1423M1716.4 -305L1716.4 1423M1692.4 -305L1692.4 1423M1668.4 -305L1668.4 1423M1644.4 -305L1644.4 1423M1620.4 -305L1620.4 1423M1596.4 -305L1596.4 1423M1572.4 -305L1572.4 1423M1548.4 -305L1548.4 1423M1524.4 -305L1524.4 1423M1500.4 -305L1500.4 1423M1476.4 -305L1476.4 1423M1452.4 -305L1452.4 1423M1428.4 -305L1428.4 1423M1404.4 -305L1404.4 1423M1380.4 -305L1380.4 1423M1356.4 -305L1356.4 1423M1332.4 -305L1332.4 1423M1308.4 -305L1308.4 1423M1284.4 -305L1284.4 1423M1260.4 -305L1260.4 1423M1236.4 -305L1236.4 1423M1212.4 -305L1212.4 1423M1188.4 -305L1188.4 1423M1164.4 -305L1164.4 1423M1140.4 -305L1140.4 1423M1116.4 -305L1116.4 1423M1092.4 -305L1092.4 1423M1068.4 -305L1068.4 1423M1044.4 -305L1044.4 1423M1020.4 -305L1020.4 1423M996.4 -305L996.4 1423M972.4 -305L972.4 1423M948.4 -305L948.4 1423M924.4 -305L924.4 1423M900.4 -305L900.4 1423M876.4 -305L876.4 1423M852.4 -305L852.4 1423M828.4 -305L828.4 1423M804.4 -305L804.4 1423M780.4 -305L780.4 1423M756.4 -305L756.4 1423M732.4 -305L732.4 1423M708.4 -305L708.4 1423M684.4 -305L684.4 1423M660.4 -305L660.4 1423M636.4 -305L636.4 1423M612.4 -305L612.4 1423M588.4 -305L588.4 1423M564.4 -305L564.4 1423M540.4 -305L540.4 1423M516.4 -305L516.4 1423M492.4 -305L492.4 1423M468.4 -305L468.4 1423M444.4 -305L444.4 1423M420.4 -305L420.4 1423M396.4 -305L396.4 1423M372.4 -305L372.4 1423M348.4 -305L348.4 1423M324.4 -305L324.4 1423M300.4 -305L300.4 1423M276.4 -305L276.4 1423M252.4 -305L252.4 1423M228.4 -305L228.4 1423M204.4 -305L204.4 1423M180.4 -305L180.4 1423M156.4 -305L156.4 1423M132.4 -305L132.4 1423M108.4 -305L108.4 1423M84.4005 -305L84.4004 1423M60.4005 -305L60.4004 1423M36.4005 -305L36.4004 1423M12.4005 -305L12.4004 1423M-11.5995 -305L-11.5996 1423"
    stroke="url(#g)" stroke-width="0.8"/>
</svg>
